<svg width="25" height="24" viewBox="0 0 25 24" fill="none" xmlns="http://www.w3.org/2000/svg">
<path d="M14.5 19.25H10.5C10.3011 19.25 10.1103 19.171 9.96967 19.0303C9.82902 18.8897 9.75 18.6989 9.75 18.5C9.75 18.3011 9.82902 18.1103 9.96967 17.9697C10.1103 17.829 10.3011 17.75 10.5 17.75H14.5C14.6989 17.75 14.8897 17.829 15.0303 17.9697C15.171 18.1103 15.25 18.3011 15.25 18.5C15.25 18.6989 15.171 18.8897 15.0303 19.0303C14.8897 19.171 14.6989 19.25 14.5 19.25Z" fill="#059669"/>
<path d="M20.5 22.75H4.5C3.77082 22.7495 3.07165 22.4596 2.55604 21.944C2.04043 21.4283 1.75053 20.7292 1.75 20V13.5C1.75079 12.9035 1.9881 12.3317 2.40989 11.9099C2.83167 11.4881 3.40351 11.2508 4 11.25H8C8.59649 11.2508 9.16833 11.4881 9.59011 11.9099C10.0119 12.3317 10.2492 12.9035 10.25 13.5C10.2503 13.6988 10.3294 13.8894 10.47 14.03C10.6106 14.1706 10.8012 14.2497 11 14.25H14C14.1988 14.2497 14.3894 14.1706 14.53 14.03C14.6706 13.8894 14.7497 13.6988 14.75 13.5C14.7508 12.9035 14.9881 12.3317 15.4099 11.9099C15.8317 11.4881 16.4035 11.2508 17 11.25H21C21.5965 11.2508 22.1683 11.4881 22.5901 11.9099C23.0119 12.3317 23.2492 12.9035 23.25 13.5V20C23.2495 20.7292 22.9596 21.4283 22.444 21.944C21.9283 22.4596 21.2292 22.7495 20.5 22.75ZM4 12.75C3.80117 12.7503 3.61056 12.8294 3.46996 12.97C3.32937 13.1106 3.25026 13.3012 3.25 13.5V20C3.25053 20.3314 3.38239 20.649 3.6167 20.8833C3.85101 21.1176 4.16864 21.2495 4.5 21.25H20.5C20.8314 21.2495 21.149 21.1176 21.3833 20.8833C21.6176 20.649 21.7495 20.3314 21.75 20V13.5C21.7497 13.3012 21.6706 13.1106 21.53 12.97C21.3894 12.8294 21.1988 12.7503 21 12.75H17C16.8012 12.7503 16.6106 12.8294 16.47 12.97C16.3294 13.1106 16.2503 13.3012 16.25 13.5C16.2492 14.0965 16.0119 14.6683 15.5901 15.0901C15.1683 15.5119 14.5965 15.7492 14 15.75H11C10.4035 15.7492 9.83167 15.5119 9.40989 15.0901C8.9881 14.6683 8.75079 14.0965 8.75 13.5C8.74974 13.3012 8.67063 13.1106 8.53004 12.97C8.38944 12.8294 8.19883 12.7503 8 12.75H4Z" fill="#1B1F26" fill-opacity="0.72"/>
<path d="M20.5 22.75H4.5C3.77082 22.7495 3.07165 22.4596 2.55604 21.944C2.04043 21.4283 1.75053 20.7292 1.75 20V4C1.75053 3.27082 2.04043 2.57165 2.55604 2.05604C3.07165 1.54043 3.77082 1.25053 4.5 1.25H20.5C21.2292 1.25053 21.9283 1.54043 22.444 2.05604C22.9596 2.57165 23.2495 3.27082 23.25 4V9C23.25 9.19891 23.171 9.38968 23.0303 9.53033C22.8897 9.67098 22.6989 9.75 22.5 9.75C22.3011 9.75 22.1103 9.67098 21.9697 9.53033C21.829 9.38968 21.75 9.19891 21.75 9V4C21.7495 3.66864 21.6176 3.35101 21.3833 3.1167C21.149 2.88239 20.8314 2.75053 20.5 2.75H4.5C4.16864 2.75053 3.85101 2.88239 3.6167 3.1167C3.38239 3.35101 3.25053 3.66864 3.25 4V20C3.25053 20.3314 3.38239 20.649 3.6167 20.8833C3.85101 21.1176 4.16864 21.2495 4.5 21.25H20.5C20.8314 21.2495 21.149 21.1176 21.3833 20.8833C21.6176 20.649 21.7495 20.3314 21.75 20V14C21.75 13.8011 21.829 13.6103 21.9697 13.4697C22.1103 13.329 22.3011 13.25 22.5 13.25C22.6989 13.25 22.8897 13.329 23.0303 13.4697C23.171 13.6103 23.25 13.8011 23.25 14V20C23.2495 20.7292 22.9596 21.4283 22.444 21.944C21.9283 22.4596 21.2292 22.7495 20.5 22.75Z" fill="#1B1F26" fill-opacity="0.72"/>
</svg>
