<svg width="10" height="6" viewBox="0 0 10 6" fill="none" xmlns="http://www.w3.org/2000/svg">
<g clip-path="url(#clip0_4_50)">
<path fill-rule="evenodd" clip-rule="evenodd" d="M0.146051 0.666287C-0.0489483 0.850378 -0.0489483 1.14811 0.146051 1.33174L4.27805 5.22401C4.36913 5.31114 4.47875 5.38052 4.60025 5.42792C4.72175 5.47533 4.85258 5.49978 4.9848 5.49978C5.11702 5.49978 5.24785 5.47533 5.36935 5.42792C5.49085 5.38052 5.60047 5.31114 5.69155 5.22401L9.85405 1.30356C9.94708 1.21458 9.99936 1.09676 10.0003 0.974004C10.0012 0.851252 9.95072 0.732781 9.85905 0.642651C9.81378 0.598001 9.75891 0.562276 9.69784 0.537687C9.63676 0.513098 9.57079 0.500169 9.50399 0.4997C9.4372 0.499232 9.37101 0.511233 9.30953 0.534962C9.24804 0.558691 9.19257 0.593642 9.14655 0.637651L5.33805 4.22583C5.29251 4.26943 5.23768 4.30415 5.17691 4.32787C5.11614 4.3516 5.05069 4.36383 4.98455 4.36383C4.91841 4.36383 4.85297 4.3516 4.79219 4.32787C4.73142 4.30415 4.6766 4.26943 4.63105 4.22583L0.852551 0.666287C0.807052 0.622701 0.752268 0.587991 0.691537 0.564271C0.630806 0.540552 0.5654 0.52832 0.499302 0.52832C0.433204 0.52832 0.367797 0.540552 0.307066 0.564271C0.246335 0.587991 0.191551 0.622701 0.146051 0.666287Z" fill="#777777"/>
</g>
<defs>
<clipPath id="clip0_4_50">
<rect width="5" height="10" fill="white" transform="matrix(0 1 -1 0 10 0.5)"/>
</clipPath>
</defs>
</svg>
