<svg width="20" height="20" viewBox="0 0 20 20" fill="none" xmlns="http://www.w3.org/2000/svg">
<path d="M18.75 0.625001C18.75 0.40839 18.6378 0.207223 18.4536 0.0933439C18.2693 -0.0205352 18.0392 -0.0308877 17.8455 0.0659837L7.84549 5.06598C7.63375 5.17185 7.5 5.38827 7.5 5.625V9.54953L0.427358 11.9071C0.172144 11.9921 0 12.231 0 12.5V19.375C0 19.7202 0.279822 20 0.625 20H11.875C12.2202 20 12.5 19.7202 12.5 19.375V17.5H13.75V19.375C13.75 19.7202 14.0298 20 14.375 20H18.125C18.4702 20 18.75 19.7202 18.75 19.375V0.625001ZM2.5 13.75H3.75V15H2.5V13.75ZM5 13.75H6.25V15H5V13.75ZM3.75 16.25V17.5H2.5V16.25H3.75ZM5 16.25H6.25V17.5H5V16.25ZM16.25 3.75V5H15V3.75H16.25ZM10 6.25H11.25V7.5H10V6.25ZM11.25 8.75V10H10V8.75H11.25ZM10 11.25H11.25V12.5H10V11.25ZM12.5 11.25H13.75V12.5H12.5V11.25ZM11.25 13.75V15H10V13.75H11.25ZM12.5 13.75H13.75V15H12.5V13.75ZM16.25 11.25V12.5H15V11.25H16.25ZM15 13.75H16.25V15H15V13.75ZM12.5 8.75H13.75V10H12.5V8.75ZM16.25 8.75V10H15V8.75H16.25ZM13.75 6.25V7.5H12.5V6.25H13.75ZM15 6.25H16.25V7.5H15V6.25Z" fill="#059669"/>
</svg>
