<svg width="48" height="48" viewBox="0 0 48 48" fill="none" xmlns="http://www.w3.org/2000/svg">
<path d="M0 24C0 10.7452 10.7452 0 24 0C37.2548 0 48 10.7452 48 24C48 37.2548 37.2548 48 24 48C10.7452 48 0 37.2548 0 24Z" fill="#333333" fill-opacity="0.1"/>
<path d="M15.875 15.75C15.5298 15.75 15.25 16.0298 15.25 16.375V21.375C15.25 21.7202 14.9702 22 14.625 22C14.2798 22 14 21.7202 14 21.375V16.375C14 15.3395 14.8395 14.5 15.875 14.5H20.875C21.2202 14.5 21.5 14.7798 21.5 15.125C21.5 15.4702 21.2202 15.75 20.875 15.75H15.875ZM26.5 15.125C26.5 14.7798 26.7798 14.5 27.125 14.5H32.125C33.1605 14.5 34 15.3395 34 16.375V21.375C34 21.7202 33.7202 22 33.375 22C33.0298 22 32.75 21.7202 32.75 21.375V16.375C32.75 16.0298 32.4702 15.75 32.125 15.75H27.125C26.7798 15.75 26.5 15.4702 26.5 15.125ZM14.625 27C14.9702 27 15.25 27.2798 15.25 27.625V32.625C15.25 32.9702 15.5298 33.25 15.875 33.25H20.875C21.2202 33.25 21.5 33.5298 21.5 33.875C21.5 34.2202 21.2202 34.5 20.875 34.5H15.875C14.8395 34.5 14 33.6605 14 32.625V27.625C14 27.2798 14.2798 27 14.625 27ZM33.375 27C33.7202 27 34 27.2798 34 27.625V32.625C34 33.6605 33.1605 34.5 32.125 34.5H27.125C26.7798 34.5 26.5 34.2202 26.5 33.875C26.5 33.5298 26.7798 33.25 27.125 33.25H32.125C32.4702 33.25 32.75 32.9702 32.75 32.625V27.625C32.75 27.2798 33.0298 27 33.375 27Z" fill="#212529"/>
</svg>
