<svg width="24" height="24" viewBox="0 0 24 24" fill="none" xmlns="http://www.w3.org/2000/svg">
<path fill-rule="evenodd" clip-rule="evenodd" d="M6 3C6 1.34315 7.34315 0 9 0H21C22.6569 0 24 1.34315 24 3V15C24 16.6569 22.6569 18 21 18H9C7.34315 18 6 16.6569 6 15V3ZM9 1.5C8.17157 1.5 7.5 2.17157 7.5 3V15C7.5 15.8284 8.17157 16.5 9 16.5H21C21.8284 16.5 22.5 15.8284 22.5 15V3C22.5 2.17157 21.8284 1.5 21 1.5H9ZM3 7.5C2.17157 7.5 1.5 8.17157 1.5 9V21C1.5 21.8284 2.17157 22.5 3 22.5H15C15.8284 22.5 16.5 21.8284 16.5 21V19.5H18V21C18 22.6569 16.6569 24 15 24H3C1.34315 24 0 22.6569 0 21V9C0 7.34315 1.34315 6 3 6H4.5V7.5H3Z" fill="#059669"/>
</svg>
