<svg width="20" height="21" viewBox="0 0 20 21" fill="none" xmlns="http://www.w3.org/2000/svg">
<path d="M13.125 10.5C13.125 12.2259 11.7259 13.625 10 13.625C8.27411 13.625 6.875 12.2259 6.875 10.5C6.875 8.77411 8.27411 7.375 10 7.375C11.7259 7.375 13.125 8.77411 13.125 10.5Z" fill="#059669"/>
<path d="M0 10.5C0 10.5 3.75 3.625 10 3.625C16.25 3.625 20 10.5 20 10.5C20 10.5 16.25 17.375 10 17.375C3.75 17.375 0 10.5 0 10.5ZM10 14.875C12.4162 14.875 14.375 12.9162 14.375 10.5C14.375 8.08375 12.4162 6.125 10 6.125C7.58375 6.125 5.625 8.08375 5.625 10.5C5.625 12.9162 7.58375 14.875 10 14.875Z" fill="#059669"/>
</svg>
