<svg width="25" height="24" viewBox="0 0 25 24" fill="none" xmlns="http://www.w3.org/2000/svg">
<path d="M18.5 22.75H6.5C5.50584 22.7487 4.55279 22.3532 3.84981 21.6502C3.14684 20.9472 2.75132 19.9942 2.75 19V5C2.75132 4.00584 3.14684 3.05279 3.84981 2.34981C4.55279 1.64684 5.50584 1.25132 6.5 1.25H15.1C15.6491 1.25004 16.1915 1.37101 16.6885 1.60434C17.1856 1.83766 17.6252 2.1776 17.976 2.6L21.381 6.687C21.9418 7.36111 22.2492 8.21012 22.25 9.087V19C22.2487 19.9942 21.8532 20.9472 21.1502 21.6502C20.4472 22.3532 19.4942 22.7487 18.5 22.75ZM6.5 2.75C5.90351 2.75079 5.33167 2.9881 4.90989 3.40989C4.4881 3.83167 4.25079 4.40351 4.25 5V19C4.25079 19.5965 4.4881 20.1683 4.90989 20.5901C5.33167 21.0119 5.90351 21.2492 6.5 21.25H18.5C19.0965 21.2492 19.6683 21.0119 20.0901 20.5901C20.5119 20.1683 20.7492 19.5965 20.75 19V9.086C20.7495 8.55994 20.5652 8.05057 20.229 7.646L16.823 3.56C16.6129 3.30672 16.3496 3.10283 16.0518 2.96283C15.754 2.82284 15.4291 2.75017 15.1 2.75H6.5Z" fill="#1B1F26" fill-opacity="0.72"/>
<path d="M18.5 8.75001C17.7708 8.74948 17.0717 8.45958 16.556 7.94397C16.0404 7.42836 15.7505 6.72919 15.75 6.00001V2.35001C15.75 2.15109 15.829 1.96033 15.9697 1.81968C16.1103 1.67902 16.3011 1.60001 16.5 1.60001C16.6989 1.60001 16.8897 1.67902 17.0303 1.81968C17.171 1.96033 17.25 2.15109 17.25 2.35001V6.00001C17.2505 6.33137 17.3824 6.649 17.6167 6.88331C17.851 7.11761 18.1686 7.24948 18.5 7.25001C18.6989 7.25001 18.8897 7.32902 19.0303 7.46968C19.171 7.61033 19.25 7.80109 19.25 8.00001C19.25 8.19892 19.171 8.38968 19.0303 8.53034C18.8897 8.67099 18.6989 8.75001 18.5 8.75001Z" fill="#1B1F26" fill-opacity="0.72"/>
<path d="M16.5 12.75H8.5C8.30109 12.75 8.11032 12.671 7.96967 12.5303C7.82902 12.3897 7.75 12.1989 7.75 12C7.75 11.8011 7.82902 11.6103 7.96967 11.4697C8.11032 11.329 8.30109 11.25 8.5 11.25H16.5C16.6989 11.25 16.8897 11.329 17.0303 11.4697C17.171 11.6103 17.25 11.8011 17.25 12C17.25 12.1989 17.171 12.3897 17.0303 12.5303C16.8897 12.671 16.6989 12.75 16.5 12.75ZM12.5 16.75H8.5C8.30109 16.75 8.11032 16.671 7.96967 16.5303C7.82902 16.3897 7.75 16.1989 7.75 16C7.75 15.8011 7.82902 15.6103 7.96967 15.4697C8.11032 15.329 8.30109 15.25 8.5 15.25H12.5C12.6989 15.25 12.8897 15.329 13.0303 15.4697C13.171 15.6103 13.25 15.8011 13.25 16C13.25 16.1989 13.171 16.3897 13.0303 16.5303C12.8897 16.671 12.6989 16.75 12.5 16.75Z" fill="#059669"/>
</svg>
