<svg width="10" height="6" viewBox="0 0 10 6" fill="none" xmlns="http://www.w3.org/2000/svg">
<g clip-path="url(#clip0_1_1510)">
<path fill-rule="evenodd" clip-rule="evenodd" d="M0.146051 0.666295C-0.0489483 0.850386 -0.0489483 1.14811 0.146051 1.33175L4.27805 5.22402C4.36913 5.31115 4.47875 5.38053 4.60025 5.42793C4.72175 5.47534 4.85258 5.49978 4.9848 5.49978C5.11702 5.49978 5.24785 5.47534 5.36935 5.42793C5.49085 5.38053 5.60047 5.31115 5.69155 5.22402L9.85405 1.30357C9.94708 1.21459 9.99936 1.09676 10.0003 0.974012C10.0012 0.85126 9.95072 0.732789 9.85905 0.642658C9.81378 0.598009 9.75891 0.562284 9.69784 0.537695C9.63676 0.513106 9.57079 0.500177 9.50399 0.499708C9.4372 0.499239 9.37101 0.511241 9.30953 0.53497C9.24804 0.558699 9.19257 0.59365 9.14655 0.637658L5.33805 4.22584C5.29251 4.26944 5.23768 4.30416 5.17691 4.32788C5.11614 4.35161 5.05069 4.36384 4.98455 4.36384C4.91841 4.36384 4.85297 4.35161 4.79219 4.32788C4.73142 4.30416 4.6766 4.26944 4.63105 4.22584L0.852551 0.666295C0.807052 0.622708 0.752268 0.587998 0.691537 0.564279C0.630806 0.54056 0.5654 0.528328 0.499302 0.528328C0.433204 0.528328 0.367797 0.54056 0.307066 0.564279C0.246335 0.587998 0.191551 0.622708 0.146051 0.666295Z" fill="#059669"/>
</g>
<defs>
<clipPath id="clip0_1_1510">
<rect width="5" height="10" fill="white" transform="matrix(0 1 -1 0 10 0.5)"/>
</clipPath>
</defs>
</svg>
