<svg width="25" height="24" viewBox="0 0 25 24" fill="none" xmlns="http://www.w3.org/2000/svg">
<path d="M15.5 18.75H9.5C9.30109 18.75 9.11032 18.671 8.96967 18.5303C8.82902 18.3897 8.75 18.1989 8.75 18C8.75 17.8011 8.82902 17.6103 8.96967 17.4697C9.11032 17.329 9.30109 17.25 9.5 17.25H15.5C15.6989 17.25 15.8897 17.329 16.0303 17.4697C16.171 17.6103 16.25 17.8011 16.25 18C16.25 18.1989 16.171 18.3897 16.0303 18.5303C15.8897 18.671 15.6989 18.75 15.5 18.75Z" fill="#059669"/>
<path d="M18.5 22.75H6.50002C5.24072 22.7484 4.03347 22.2475 3.14301 21.357C2.25256 20.4666 1.7516 19.2593 1.75002 18V10.923C1.74821 10.2104 1.90756 9.50667 2.21616 8.86438C2.52475 8.22209 2.97458 7.65789 3.53202 7.214L10.157 1.914C10.8208 1.37953 11.6473 1.08811 12.4995 1.08811C13.3517 1.08811 14.1783 1.37953 14.842 1.914L21.468 7.214C22.0254 7.65819 22.4751 8.22259 22.7837 8.86502C23.0923 9.50745 23.2517 10.2113 23.25 10.924V18C23.2484 19.2593 22.7475 20.4666 21.857 21.357C20.9666 22.2475 19.7593 22.7484 18.5 22.75ZM4.47002 8.384C4.08861 8.68804 3.7808 9.07429 3.56955 9.51393C3.3583 9.95357 3.24907 10.4352 3.25002 10.923V18C3.25107 18.8616 3.59382 19.6877 4.20309 20.2969C4.81235 20.9062 5.63839 21.2489 6.50002 21.25H18.5C19.3616 21.2489 20.1877 20.9062 20.7969 20.2969C21.4062 19.6877 21.749 18.8616 21.75 18V10.923C21.751 10.4352 21.6417 9.95357 21.4305 9.51393C21.2192 9.07429 20.9114 8.68804 20.53 8.384L13.905 3.084C13.507 2.7628 13.011 2.58761 12.4995 2.58761C11.9881 2.58761 11.492 2.7628 11.094 3.084L4.47002 8.384Z" fill="#1B1F26" fill-opacity="0.72"/>
</svg>
