<svg width="14" height="15" viewBox="0 0 14 15" fill="none" xmlns="http://www.w3.org/2000/svg">
<g clip-path="url(#clip0_1_1428)">
<rect width="14" height="14" transform="translate(0 0.5)" fill="white" fill-opacity="0.01"/>
<path d="M7 1.37357C7.05732 1.37362 7.11403 1.38484 7.16699 1.40678C7.22009 1.42881 7.26896 1.46082 7.30957 1.5015L9.625 3.81791V2.68705C9.625 2.57102 9.67088 2.45953 9.75293 2.37748C9.83498 2.29543 9.94647 2.24955 10.0625 2.24955H10.9375C11.0533 2.24965 11.1641 2.29559 11.2461 2.37748C11.3281 2.45953 11.375 2.57102 11.375 2.68705V5.56791L12.5596 6.7515C12.6002 6.79221 12.6324 6.84093 12.6543 6.89408C12.6762 6.94721 12.6876 7.00458 12.6875 7.06205V13.187C12.6874 13.3029 12.6406 13.4137 12.5586 13.4956C12.4766 13.5776 12.3659 13.6245 12.25 13.6245H8.3125C8.19647 13.6245 8.08498 13.5777 8.00293 13.4956C7.92104 13.4137 7.8751 13.3029 7.875 13.187V9.68705H6.125V13.187C6.1249 13.3029 6.07805 13.4137 5.99609 13.4956C5.91413 13.5776 5.8034 13.6245 5.6875 13.6245H1.75C1.63397 13.6245 1.52248 13.5777 1.44043 13.4956C1.35854 13.4137 1.3126 13.3029 1.3125 13.187V7.06205C1.3124 7.00461 1.32285 6.94719 1.34473 6.89408C1.36665 6.84093 1.39885 6.79221 1.43945 6.7515L6.68945 1.5015C6.73009 1.46076 6.77888 1.42883 6.83203 1.40678C6.88516 1.38474 6.94248 1.37357 7 1.37357ZM2.1875 7.24271V12.7495H5.25V9.24955C5.25 9.13352 5.29588 9.02203 5.37793 8.93998C5.45998 8.85793 5.57147 8.81205 5.6875 8.81205H8.3125C8.42834 8.81215 8.53914 8.85809 8.62109 8.93998C8.70314 9.02203 8.75 9.13352 8.75 9.24955V12.7495H11.8125V7.24271L7 2.43021L2.1875 7.24271Z" fill="#333333"/>
</g>
<defs>
<clipPath id="clip0_1_1428">
<rect width="14" height="14" fill="white" transform="translate(0 0.5)"/>
</clipPath>
</defs>
</svg>
