<svg width="25" height="24" viewBox="0 0 25 24" fill="none" xmlns="http://www.w3.org/2000/svg">
<path d="M18.7209 10.6387L14.9207 10.147C14.8357 10.1378 14.7477 10.1652 14.6809 10.2228C14.6172 10.2805 14.5777 10.3625 14.5777 10.4505V12.0349C14.5777 12.1897 14.6991 12.3202 14.8539 12.3354L18.6541 12.6996C18.6541 12.6996 18.6723 12.7027 18.6844 12.7027C18.7573 12.7027 18.8301 12.6723 18.8878 12.6237C18.9515 12.5661 18.988 12.4841 18.988 12.3991V10.9422C18.988 10.7874 18.8726 10.6599 18.7209 10.6387ZM6.43402 12.7027C6.43402 12.7027 6.45223 12.6996 6.46134 12.6996L10.2615 12.3354C10.4163 12.3202 10.5347 12.1897 10.5347 12.0349V10.4505C10.5347 10.3625 10.4983 10.2805 10.4315 10.2228C10.3678 10.1652 10.2797 10.1378 10.1947 10.147L6.39456 10.6387C6.2428 10.6599 6.13049 10.7874 6.13049 10.9422V12.3991C6.13049 12.4841 6.16388 12.5661 6.22762 12.6237C6.28529 12.6723 6.35814 12.7027 6.43402 12.7027Z" fill="#059669"/>
<path d="M22.1507 19.5655L21.2431 18.3544V4.9809C21.2431 4.84432 21.1521 4.7229 21.0185 4.68648L12.635 2.44948C12.635 2.44948 12.6259 2.44948 12.6199 2.44948C12.5986 2.4434 12.5774 2.44948 12.5531 2.44948C12.5288 2.44948 12.5045 2.44948 12.4802 2.45251C12.4742 2.45251 12.4711 2.45251 12.4651 2.45251L3.87218 5.05375C3.7447 5.09321 3.65667 5.21159 3.65667 5.34514V8.58379C3.65667 8.58379 3.65667 8.58682 3.65667 8.58986V10.0073C3.65667 10.0073 3.65667 10.0073 3.65667 10.0104V11.2579C3.65667 11.2579 3.65667 11.2579 3.65667 11.2609V12.6116C3.65667 12.6116 3.65667 12.6116 3.65667 12.6146V18.3574L2.84018 19.5746C2.78251 19.6595 2.7734 19.7688 2.81286 19.8659C2.85536 19.96 2.94338 20.0268 3.04355 20.045L12.5015 21.5536C12.5227 21.5566 12.541 21.5596 12.5622 21.5596C12.5774 21.5596 12.5926 21.5596 12.6077 21.5566H12.6199L21.9594 20.045C22.0657 20.0268 22.1537 19.957 22.1932 19.8568C22.2326 19.7597 22.2174 19.6474 22.1537 19.5624L22.1507 19.5655ZM12.2556 9.87985L11.2874 10.0043C11.1356 10.0255 11.0233 10.153 11.0233 10.3078V11.9317C11.0233 12.0167 11.0567 12.0986 11.1204 12.1563C11.1781 12.2049 11.251 12.2352 11.3268 12.2352C11.3359 12.2352 11.345 12.2352 11.3542 12.2352L12.2556 12.1502V19.4835L4.26373 18.1996V12.8969L5.36857 12.8059C5.52641 12.7937 5.64782 12.6632 5.64782 12.5054V11.0879C5.64782 10.9999 5.60836 10.9149 5.54462 10.8572C5.47784 10.7995 5.38982 10.7753 5.30483 10.7844L4.26373 10.921V10.2653L12.2556 8.88125V9.87985ZM12.8627 12.1472L13.7611 12.2322C13.7611 12.2322 13.7793 12.2322 13.7885 12.2322C13.8643 12.2322 13.9372 12.2018 13.9949 12.1533C14.0586 12.0956 14.092 12.0137 14.092 11.9287V10.3048C14.092 10.15 13.9797 10.0225 13.8279 10.0013L12.8627 9.87682V8.86607L20.6391 9.91931V10.8876L19.8165 10.7813C19.7315 10.7722 19.6435 10.7965 19.5798 10.8542C19.513 10.9119 19.4766 10.9968 19.4766 11.0849V12.5023C19.4766 12.6571 19.595 12.7877 19.7498 12.8028L20.6391 12.8878V18.1965L12.8627 19.4805V12.1472ZM20.6391 7.91906L12.8627 6.59871V3.13849L20.6391 5.21462V7.91602V7.91906ZM12.2556 3.15366V6.60478L4.26373 8.22259V5.57582L12.2556 3.1567V3.15366Z" fill="#1B1F26" fill-opacity="0.72"/>
</svg>
