<svg width="48" height="48" viewBox="0 0 48 48" fill="none" xmlns="http://www.w3.org/2000/svg">
<path d="M0 24C0 10.7452 10.7452 0 24 0C37.2548 0 48 10.7452 48 24C48 37.2548 37.2548 48 24 48C10.7452 48 0 37.2548 0 24Z" fill="#10B981" fill-opacity="0.1"/>
<path d="M14.3125 16.7812C14.3125 15.6939 15.1939 14.8125 16.2812 14.8125L20.2188 14.8125C21.3061 14.8125 22.1875 15.6939 22.1875 16.7812V20.7188C22.1875 21.8061 21.3061 22.6875 20.2188 22.6875H16.2812C15.1939 22.6875 14.3125 21.8061 14.3125 20.7188L14.3125 16.7812ZM24.8125 16.7812C24.8125 15.6939 25.6939 14.8125 26.7812 14.8125L30.7188 14.8125C31.8061 14.8125 32.6875 15.6939 32.6875 16.7812V20.7188C32.6875 21.8061 31.8061 22.6875 30.7188 22.6875H26.7812C25.6939 22.6875 24.8125 21.8061 24.8125 20.7188V16.7812ZM14.3125 27.2812C14.3125 26.1939 15.1939 25.3125 16.2812 25.3125H20.2188C21.3061 25.3125 22.1875 26.1939 22.1875 27.2812V31.2188C22.1875 32.3061 21.3061 33.1875 20.2188 33.1875H16.2812C15.1939 33.1875 14.3125 32.3061 14.3125 31.2188L14.3125 27.2812ZM24.8125 27.2812C24.8125 26.1939 25.6939 25.3125 26.7812 25.3125H30.7188C31.8061 25.3125 32.6875 26.1939 32.6875 27.2812V31.2188C32.6875 32.3061 31.8061 33.1875 30.7188 33.1875H26.7812C25.6939 33.1875 24.8125 32.3061 24.8125 31.2188V27.2812Z" fill="#059669"/>
</svg>
