<svg width="48" height="48" viewBox="0 0 48 48" fill="none" xmlns="http://www.w3.org/2000/svg">
<path d="M0 24C0 10.7452 10.7452 0 24 0C37.2548 0 48 10.7452 48 24C48 37.2548 37.2548 48 24 48C10.7452 48 0 37.2548 0 24Z" fill="#333333" fill-opacity="0.1"/>
<path d="M23.5999 16C23.2043 16 22.8176 15.8827 22.4887 15.6629C22.1598 15.4431 21.9035 15.1308 21.7521 14.7653C21.6007 14.3999 21.5611 13.9978 21.6383 13.6098C21.7155 13.2218 21.9059 12.8655 22.1856 12.5858C22.4653 12.3061 22.8217 12.1156 23.2097 12.0384C23.5976 11.9613 23.9998 12.0009 24.3652 12.1522C24.7307 12.3036 25.043 12.56 25.2628 12.8889C25.4826 13.2177 25.5999 13.6044 25.5999 14C25.5999 14.2626 25.5481 14.5227 25.4476 14.7653C25.3471 15.008 25.1998 15.2285 25.0141 15.4142C24.8284 15.5999 24.6079 15.7472 24.3652 15.8477C24.1226 15.9482 23.8625 16 23.5999 16ZM23.5999 13.6C23.5207 13.6 23.4434 13.6234 23.3776 13.6674C23.3118 13.7114 23.2606 13.7738 23.2303 13.8469C23.2 13.92 23.1921 14.0004 23.2075 14.078C23.223 14.1556 23.2611 14.2269 23.317 14.2828C23.373 14.3388 23.4442 14.3769 23.5218 14.3923C23.5994 14.4077 23.6798 14.3998 23.7529 14.3695C23.826 14.3393 23.8885 14.288 23.9324 14.2222C23.9764 14.1564 23.9999 14.0791 23.9999 14C23.9999 13.8939 23.9577 13.7922 23.8827 13.7171C23.8077 13.6421 23.7059 13.6 23.5999 13.6Z" fill="#333333"/>
<path d="M23.6011 36C25.1475 36 26.4011 34.7464 26.4011 33.2001C26.4011 31.6537 25.1475 30.4001 23.6011 30.4001C22.0547 30.4001 20.8011 31.6537 20.8011 33.2001C20.8011 34.7464 22.0547 36 23.6011 36Z" fill="#777777"/>
<path d="M32.04 28.5276C31.9081 28.4612 31.7972 28.3595 31.7195 28.2338C31.6418 28.1081 31.6005 27.9634 31.6 27.8157V22.3997C31.6 20.278 30.7572 18.2432 29.2569 16.7429C27.7566 15.2426 25.7218 14.3998 23.6 14.3998C21.4783 14.3998 19.4435 15.2426 17.9432 16.7429C16.4429 18.2432 15.6 20.278 15.6 22.3997V27.8077C15.5996 27.9554 15.5582 28.1001 15.4806 28.2258C15.4029 28.3515 15.292 28.4532 15.16 28.5196C14.8102 28.6932 14.5161 28.9614 14.311 29.2937C14.106 29.626 13.9982 30.0092 14 30.3996C14 30.824 14.1686 31.2309 14.4687 31.531C14.7687 31.8311 15.1757 31.9996 15.6 31.9996H31.6C32.0244 31.9996 32.4314 31.8311 32.7314 31.531C33.0315 31.2309 33.2 30.824 33.2 30.3996C33.2003 30.0105 33.0919 29.629 32.8869 29.2983C32.6819 28.9675 32.3886 28.7006 32.04 28.5276Z" fill="#333333"/>
<path d="M29.8 21.6C31.8987 21.6 33.6001 19.8987 33.6001 17.8C33.6001 15.7013 31.8987 14 29.8 14C27.7013 14 26 15.7013 26 17.8C26 19.8987 27.7013 21.6 29.8 21.6Z" fill="#D00416"/>
</svg>
