<svg width="25" height="24" viewBox="0 0 25 24" fill="none" xmlns="http://www.w3.org/2000/svg">
<path d="M14.5 8.75H10.5C10.036 8.74947 9.59122 8.56493 9.26315 8.23685C8.93507 7.90878 8.75053 7.46397 8.75 7V3C8.75053 2.53603 8.93507 2.09122 9.26315 1.76315C9.59122 1.43507 10.036 1.25053 10.5 1.25H14.5C14.964 1.25053 15.4088 1.43507 15.7369 1.76315C16.0649 2.09122 16.2495 2.53603 16.25 3V7C16.2495 7.46397 16.0649 7.90878 15.7369 8.23685C15.4088 8.56493 14.964 8.74947 14.5 8.75ZM10.5 2.75C10.4337 2.75 10.3701 2.77634 10.3232 2.82322C10.2763 2.87011 10.25 2.9337 10.25 3V7C10.25 7.0663 10.2763 7.12989 10.3232 7.17678C10.3701 7.22366 10.4337 7.25 10.5 7.25H14.5C14.5663 7.25 14.6299 7.22366 14.6768 7.17678C14.7237 7.12989 14.75 7.0663 14.75 7V3C14.75 2.9337 14.7237 2.87011 14.6768 2.82322C14.6299 2.77634 14.5663 2.75 14.5 2.75H10.5Z" fill="#1B1F26" fill-opacity="0.72"/>
<path d="M7.5 22.75H3.5C3.03603 22.7495 2.59122 22.5649 2.26315 22.2369C1.93507 21.9088 1.75053 21.464 1.75 21V17C1.75053 16.536 1.93507 16.0912 2.26315 15.7631C2.59122 15.4351 3.03603 15.2505 3.5 15.25H7.5C7.96397 15.2505 8.40878 15.4351 8.73685 15.7631C9.06493 16.0912 9.24947 16.536 9.25 17V21C9.24947 21.464 9.06493 21.9088 8.73685 22.2369C8.40878 22.5649 7.96397 22.7495 7.5 22.75ZM3.5 16.75C3.4337 16.75 3.37011 16.7763 3.32322 16.8232C3.27634 16.8701 3.25 16.9337 3.25 17V21C3.25 21.0663 3.27634 21.1299 3.32322 21.1768C3.37011 21.2237 3.4337 21.25 3.5 21.25H7.5C7.5663 21.25 7.62989 21.2237 7.67678 21.1768C7.72366 21.1299 7.75 21.0663 7.75 21V17C7.75 16.9337 7.72366 16.8701 7.67678 16.8232C7.62989 16.7763 7.5663 16.75 7.5 16.75H3.5ZM21.5 22.75H17.5C17.036 22.7495 16.5912 22.5649 16.2631 22.2369C15.9351 21.9088 15.7505 21.464 15.75 21V17C15.7505 16.536 15.9351 16.0912 16.2631 15.7631C16.5912 15.4351 17.036 15.2505 17.5 15.25H21.5C21.964 15.2505 22.4088 15.4351 22.7369 15.7631C23.0649 16.0912 23.2495 16.536 23.25 17V21C23.2495 21.464 23.0649 21.9088 22.7369 22.2369C22.4088 22.5649 21.964 22.7495 21.5 22.75ZM17.5 16.75C17.4337 16.75 17.3701 16.7763 17.3232 16.8232C17.2763 16.8701 17.25 16.9337 17.25 17V21C17.25 21.0663 17.2763 21.1299 17.3232 21.1768C17.3701 21.2237 17.4337 21.25 17.5 21.25H21.5C21.5663 21.25 21.6299 21.2237 21.6768 21.1768C21.7237 21.1299 21.75 21.0663 21.75 21V17C21.75 16.9337 21.7237 16.8701 21.6768 16.8232C21.6299 16.7763 21.5663 16.75 21.5 16.75H17.5Z" fill="#059669"/>
<path d="M19.5 14.75C19.3011 14.75 19.1103 14.671 18.9697 14.5303C18.829 14.3897 18.75 14.1989 18.75 14V13C18.75 12.9337 18.7237 12.8701 18.6768 12.8232C18.6299 12.7763 18.5663 12.75 18.5 12.75H6.5C6.4337 12.75 6.37011 12.7763 6.32322 12.8232C6.27634 12.8701 6.25 12.9337 6.25 13V14C6.25 14.1989 6.17098 14.3897 6.03033 14.5303C5.88968 14.671 5.69891 14.75 5.5 14.75C5.30109 14.75 5.11032 14.671 4.96967 14.5303C4.82902 14.3897 4.75 14.1989 4.75 14V13C4.75053 12.536 4.93507 12.0912 5.26315 11.7631C5.59122 11.4351 6.03603 11.2505 6.5 11.25H18.5C18.964 11.2505 19.4088 11.4351 19.7369 11.7631C20.0649 12.0912 20.2495 12.536 20.25 13V14C20.25 14.1989 20.171 14.3897 20.0303 14.5303C19.8897 14.671 19.6989 14.75 19.5 14.75Z" fill="#1B1F26" fill-opacity="0.72"/>
<path d="M12.5 12.75C12.3011 12.75 12.1103 12.671 11.9697 12.5303C11.829 12.3897 11.75 12.1989 11.75 12V8C11.75 7.80109 11.829 7.61032 11.9697 7.46967C12.1103 7.32902 12.3011 7.25 12.5 7.25C12.6989 7.25 12.8897 7.32902 13.0303 7.46967C13.171 7.61032 13.25 7.80109 13.25 8V12C13.25 12.1989 13.171 12.3897 13.0303 12.5303C12.8897 12.671 12.6989 12.75 12.5 12.75Z" fill="#1B1F26" fill-opacity="0.72"/>
</svg>
