<svg width="16" height="16" viewBox="0 0 16 16" fill="none" xmlns="http://www.w3.org/2000/svg">
<path d="M11.7424 10.3439C12.5332 9.2673 13.0002 7.9382 13.0002 6.5C13.0002 2.91015 10.0901 0 6.50024 0C2.91039 0 0.000244141 2.91015 0.000244141 6.5C0.000244141 10.0899 2.91039 13 6.50024 13C7.93883 13 9.26826 12.5327 10.345 11.7415L10.3441 11.7422C10.3736 11.7822 10.4065 11.8204 10.4427 11.8566L14.2931 15.7071C14.6837 16.0976 15.3168 16.0976 15.7074 15.7071C16.0979 15.3166 16.0979 14.6834 15.7074 14.2929L11.8569 10.4424C11.8207 10.4062 11.7824 10.3734 11.7424 10.3439ZM12.0002 6.5C12.0002 9.53757 9.53781 12 6.50024 12C3.46268 12 1.00024 9.53757 1.00024 6.5C1.00024 3.46243 3.46268 1 6.50024 1C9.53781 1 12.0002 3.46243 12.0002 6.5Z" fill="#E8E8E8"/>
</svg>
