<svg width="48" height="48" viewBox="0 0 48 48" fill="none" xmlns="http://www.w3.org/2000/svg">
<path d="M0 24C0 10.7452 10.7452 0 24 0C37.2548 0 48 10.7452 48 24C48 37.2548 37.2548 48 24 48C10.7452 48 0 37.2548 0 24Z" fill="#333333" fill-opacity="0.1"/>
<path d="M25.9314 14.4443C25.3638 12.5186 22.6362 12.5186 22.0686 14.4443L21.9309 14.9113C21.5683 16.1417 20.1629 16.7239 19.0364 16.1103L18.6088 15.8774C16.8458 14.917 14.917 16.8458 15.8774 18.6088L16.1103 19.0364C16.7239 20.1629 16.1417 21.5683 14.9113 21.9309L14.4443 22.0686C12.5186 22.6362 12.5186 25.3638 14.4443 25.9314L14.9113 26.0691C16.1417 26.4317 16.7239 27.8371 16.1103 28.9636L15.8774 29.3912C14.917 31.1542 16.8458 33.083 18.6088 32.1226L19.0364 31.8897C20.1629 31.2761 21.5683 31.8583 21.9309 33.0887L22.0686 33.5557C22.6362 35.4814 25.3638 35.4814 25.9314 33.5557L26.0691 33.0887C26.4317 31.8583 27.8371 31.2761 28.9636 31.8897L29.3912 32.1226C31.1542 33.083 33.083 31.1542 32.1226 29.3912L31.8897 28.9636C31.2761 27.8371 31.8583 26.4317 33.0887 26.0691L33.5557 25.9314C35.4814 25.3638 35.4814 22.6362 33.5557 22.0686L33.0887 21.9309C31.8583 21.5683 31.2761 20.1629 31.8897 19.0364L32.1226 18.6088C33.083 16.8458 31.1542 14.917 29.3912 15.8774L28.9636 16.1103C27.8371 16.7239 26.4317 16.1417 26.0691 14.9113L25.9314 14.4443ZM24 28.0271C21.7759 28.0271 19.9729 26.2241 19.9729 24C19.9729 21.7759 21.7759 19.9729 24 19.9729C26.2241 19.9729 28.0271 21.7759 28.0271 24C28.0271 26.2241 26.2241 28.0271 24 28.0271Z" fill="#212529"/>
</svg>
