<svg width="25" height="24" viewBox="0 0 25 24" fill="none" xmlns="http://www.w3.org/2000/svg">
<g clip-path="url(#clip0_1_1796)">
<path d="M12.1508 7.25156C12.1508 7.43672 12.1391 7.62188 12.1133 7.80469C12.1227 7.74141 12.1297 7.68047 12.1391 7.61719C12.0876 7.98281 11.9915 8.33906 11.8485 8.68125L11.9188 8.5125C11.818 8.74922 11.6938 8.97656 11.5508 9.19219C11.5133 9.24844 11.4735 9.30234 11.436 9.35625C11.3493 9.47813 11.5391 9.22969 11.4618 9.32344C11.443 9.34688 11.4243 9.37031 11.4032 9.39609C11.3212 9.49453 11.2344 9.58828 11.1454 9.67969C11.054 9.77109 10.9602 9.85547 10.8618 9.9375C10.8383 9.95625 10.8149 9.97734 10.7891 9.99609C10.6954 10.0734 10.9274 9.89297 10.8337 9.96094C10.7797 10.0008 10.7258 10.0383 10.6696 10.0758C10.4516 10.2234 10.2196 10.3477 9.97818 10.4508L10.1469 10.3805C9.80709 10.5234 9.45084 10.6219 9.08287 10.6711C9.14615 10.6617 9.20709 10.6547 9.27037 10.6453C8.9024 10.6922 8.53209 10.6922 8.16412 10.6453C8.2274 10.6547 8.28834 10.6617 8.35162 10.6711C7.986 10.6195 7.62975 10.5234 7.28756 10.3805L7.45631 10.4508C7.21959 10.35 6.99224 10.2258 6.77662 10.0828C6.72037 10.0453 6.66646 10.0055 6.61256 9.96797C6.49068 9.88125 6.73912 10.0711 6.64537 9.99375C6.62193 9.975 6.5985 9.95625 6.57271 9.93516C6.47428 9.85313 6.38053 9.76641 6.28912 9.67734C6.19771 9.58594 6.11334 9.49219 6.03131 9.39375C6.01256 9.37031 5.99146 9.34688 5.97271 9.32109C5.89537 9.22734 6.07584 9.45938 6.00787 9.36563C5.96803 9.31172 5.93053 9.25781 5.89303 9.20156C5.74537 8.98359 5.62115 8.75156 5.51803 8.51016L5.58834 8.67891C5.44537 8.33906 5.34693 7.98281 5.29771 7.61484C5.30709 7.67813 5.31412 7.73906 5.3235 7.80234C5.27662 7.43438 5.27662 7.06406 5.3235 6.69609C5.31412 6.75938 5.30709 6.82031 5.29771 6.88359C5.34928 6.51797 5.44537 6.16172 5.58834 5.81953L5.51803 5.98828C5.61881 5.75156 5.74303 5.52422 5.886 5.30859C5.9235 5.25234 5.96334 5.19844 6.00084 5.14453C6.08756 5.02266 5.89771 5.27109 5.97506 5.17734C5.99381 5.15391 6.01256 5.13047 6.03365 5.10469C6.11568 5.00625 6.2024 4.9125 6.29146 4.82109C6.38053 4.72969 6.47662 4.64531 6.57506 4.56328C6.5985 4.54453 6.62193 4.52344 6.64771 4.50469C6.74146 4.42734 6.50943 4.60781 6.60318 4.53984C6.65709 4.5 6.711 4.4625 6.76725 4.425C6.98521 4.27734 7.21725 4.15313 7.45865 4.05L7.2899 4.12031C7.62975 3.97734 7.986 3.87891 8.35396 3.82969C8.29068 3.83906 8.22975 3.84609 8.16646 3.85547C8.53443 3.80859 8.90475 3.80859 9.27271 3.85547C9.20943 3.84609 9.14849 3.83906 9.08521 3.82969C9.45084 3.88125 9.80709 3.97734 10.1493 4.12031L9.98053 4.05C10.2172 4.15078 10.4446 4.275 10.6602 4.41797C10.7165 4.45547 10.7704 4.49531 10.8243 4.53281C10.9462 4.61953 10.6977 4.42969 10.7915 4.50703C10.8149 4.52578 10.8383 4.54453 10.8641 4.56563C10.9626 4.64766 11.0563 4.73438 11.1477 4.82344C11.2391 4.91484 11.3235 5.00859 11.4055 5.10703C11.4243 5.13047 11.4454 5.15391 11.4641 5.17969C11.5415 5.27344 11.361 5.04141 11.429 5.13516C11.4688 5.18906 11.5063 5.24297 11.5438 5.29922C11.6915 5.51719 11.8157 5.74922 11.9188 5.99063L11.8485 5.82188C11.9915 6.16172 12.0899 6.51797 12.1391 6.88594C12.1297 6.82266 12.1227 6.76172 12.1133 6.69844C12.1391 6.88125 12.1508 7.06641 12.1508 7.25156C12.1532 7.61953 12.4743 7.97109 12.854 7.95469C13.2337 7.93828 13.5594 7.64531 13.5571 7.25156C13.5524 6.27422 13.2594 5.28281 12.6876 4.48828C12.0922 3.66094 11.293 3.04688 10.3344 2.69297C8.48521 2.01328 6.26803 2.61328 5.02115 4.13906C4.3649 4.94297 3.97584 5.88984 3.89381 6.92578C3.81646 7.90078 4.06725 8.91328 4.5735 9.74766C5.06334 10.5539 5.79928 11.2383 6.66178 11.6297C7.6274 12.0656 8.67037 12.1922 9.71099 11.9883C11.6071 11.6133 13.1891 9.98906 13.4821 8.07422C13.5243 7.80234 13.5547 7.53047 13.5547 7.25391C13.5571 6.88594 13.2313 6.53438 12.8516 6.55078C12.4719 6.56484 12.1532 6.85547 12.1508 7.25156ZM20.4547 8.55234C20.4547 8.69297 20.4454 8.83359 20.4266 8.97422C20.436 8.91094 20.443 8.85 20.4524 8.78672C20.4149 9.05859 20.3422 9.32109 20.2344 9.57422L20.3047 9.40547C20.2297 9.58125 20.1407 9.74766 20.0329 9.90703C20.0047 9.94922 19.9743 9.99141 19.9438 10.0336C19.9274 10.0547 19.8782 10.1203 19.9532 10.0242C20.0305 9.92344 19.9696 10.0008 19.9508 10.0242C19.8899 10.0992 19.8243 10.1695 19.7563 10.2398C19.6907 10.3055 19.6227 10.3664 19.5524 10.425C19.5454 10.432 19.5032 10.4766 19.4938 10.4742C19.4938 10.4742 19.6415 10.3641 19.5641 10.4203C19.5219 10.4508 19.4821 10.4813 19.4399 10.5094C19.2782 10.6195 19.1047 10.7109 18.9266 10.7883L19.0954 10.718C18.8422 10.8234 18.5797 10.8961 18.3079 10.9359C18.3712 10.9266 18.4321 10.9195 18.4954 10.9102C18.2141 10.9477 17.9329 10.9477 17.6516 10.9102C17.7149 10.9195 17.7758 10.9266 17.8391 10.9359C17.5672 10.8984 17.3047 10.8258 17.0516 10.718L17.2204 10.7883C17.0446 10.7133 16.8782 10.6242 16.7188 10.5164C16.6766 10.4883 16.6344 10.4578 16.5922 10.4273C16.5712 10.4109 16.5055 10.3617 16.6016 10.4367C16.7024 10.5141 16.6251 10.4531 16.6016 10.4344C16.5266 10.3734 16.4563 10.3078 16.386 10.2398C16.3204 10.1742 16.2594 10.1063 16.2008 10.0359C16.1938 10.0289 16.1493 9.98672 16.1516 9.97734C16.1516 9.97734 16.2618 10.125 16.2055 10.0477C16.1751 10.0055 16.1446 9.96563 16.1165 9.92344C16.0063 9.76172 15.9149 9.58828 15.8376 9.41016L15.9079 9.57891C15.8024 9.32578 15.7297 9.06328 15.6899 8.79141C15.6993 8.85469 15.7063 8.91563 15.7157 8.97891C15.6782 8.69766 15.6782 8.41641 15.7157 8.13516C15.7063 8.19844 15.6993 8.25938 15.6899 8.32266C15.7274 8.05078 15.8001 7.78828 15.9079 7.53516L15.8376 7.70391C15.9126 7.52813 16.0016 7.36172 16.1094 7.20234C16.1376 7.16016 16.168 7.11797 16.1985 7.07578C16.2149 7.05469 16.2641 6.98906 16.1891 7.08516C16.1118 7.18594 16.1727 7.10859 16.1915 7.08516C16.2524 7.01016 16.318 6.93984 16.386 6.86953C16.4516 6.80391 16.5196 6.74297 16.5899 6.68438C16.5969 6.67734 16.6391 6.63281 16.6485 6.63516C16.6485 6.63516 16.5008 6.74531 16.5782 6.68906C16.6204 6.65859 16.6602 6.62813 16.7024 6.6C16.8641 6.48984 17.0376 6.39844 17.2157 6.32109L17.0469 6.39141C17.3001 6.28594 17.5626 6.21328 17.8344 6.17344C17.7712 6.18281 17.7102 6.18984 17.6469 6.19922C17.9282 6.16172 18.2094 6.16172 18.4907 6.19922C18.4274 6.18984 18.3665 6.18281 18.3032 6.17344C18.5751 6.21094 18.8376 6.28359 19.0907 6.39141L18.9219 6.32109C19.0977 6.39609 19.2641 6.48516 19.4235 6.59297C19.4657 6.62109 19.5079 6.65156 19.5501 6.68203C19.5712 6.69844 19.6368 6.74766 19.5407 6.67266C19.4399 6.59531 19.5172 6.65625 19.5407 6.675C19.6157 6.73594 19.686 6.80156 19.7563 6.86953C19.8219 6.93516 19.8829 7.00313 19.9415 7.07344C19.9485 7.08047 19.993 7.12266 19.9907 7.13203C19.9907 7.13203 19.8805 6.98438 19.9368 7.06172C19.9672 7.10391 19.9977 7.14375 20.0258 7.18594C20.136 7.34766 20.2274 7.52109 20.3047 7.69922L20.2344 7.53047C20.3399 7.78359 20.4126 8.04609 20.4524 8.31797C20.443 8.25469 20.436 8.19375 20.4266 8.13047C20.4454 8.27109 20.4547 8.41172 20.4547 8.55234C20.4571 8.92031 20.7758 9.27188 21.1579 9.25547C21.5376 9.23906 21.8633 8.94609 21.861 8.55234C21.8563 7.79531 21.6313 7.01719 21.1883 6.39844C20.7149 5.73984 20.0868 5.25469 19.3227 4.97578C17.8907 4.45078 16.154 4.91953 15.1883 6.09844C14.668 6.73359 14.3633 7.46953 14.2954 8.28984C14.2321 9.04922 14.429 9.84609 14.8227 10.5C15.2024 11.1305 15.779 11.6719 16.454 11.9742C17.2227 12.3211 18.043 12.4219 18.8704 12.2555C20.3376 11.9602 21.5751 10.6922 21.8024 9.20859C21.8352 8.99063 21.861 8.77266 21.8633 8.55234C21.8657 8.18438 21.5376 7.83281 21.1602 7.84922C20.7758 7.86563 20.4571 8.15859 20.4547 8.55234ZM15.0899 18.2227V19.1133C15.0899 19.418 15.1157 19.7367 15.0805 20.0414C15.0899 19.9781 15.0969 19.9172 15.1063 19.8539C15.0946 19.9383 15.0735 20.018 15.0407 20.0953L15.111 19.9266C15.0852 19.9828 15.0547 20.0367 15.0243 20.0883C14.9704 20.182 15.1274 19.9758 15.0712 20.032C15.0501 20.0531 15.0313 20.0789 15.0102 20.1C14.9915 20.1187 14.9727 20.1352 14.954 20.1516C14.8696 20.2313 15.1016 20.0578 14.9985 20.1141C14.9446 20.1445 14.893 20.175 14.8368 20.2008L15.0055 20.1305C14.9258 20.1609 14.8485 20.182 14.7641 20.1961C14.8274 20.1867 14.8883 20.1797 14.9516 20.1703C14.811 20.1867 14.6657 20.1797 14.5227 20.1797H4.08834C3.60318 20.1797 3.12037 20.1844 2.63521 20.1797C2.58834 20.1797 2.53912 20.1773 2.49224 20.1703C2.55553 20.1797 2.61646 20.1867 2.67974 20.1961C2.59537 20.1844 2.51568 20.1633 2.43834 20.1305L2.60709 20.2008C2.55084 20.175 2.49693 20.1445 2.44537 20.1141C2.35162 20.0602 2.55787 20.2172 2.50162 20.1609C2.48053 20.1398 2.45475 20.1211 2.43365 20.1C2.4149 20.0812 2.3985 20.0625 2.38209 20.0438C2.3024 19.9594 2.47584 20.1914 2.41959 20.0883C2.38912 20.0344 2.35865 19.9828 2.33287 19.9266L2.40318 20.0953C2.37271 20.0156 2.35162 19.9359 2.33756 19.8539C2.34693 19.9172 2.35396 19.9781 2.36334 20.0414C2.32818 19.7742 2.35162 19.4953 2.35162 19.2281V18.2648C2.35162 18.0422 2.36334 17.8219 2.39146 17.6016C2.38209 17.6648 2.37506 17.7258 2.36568 17.7891C2.42193 17.3695 2.53209 16.9617 2.69615 16.5727L2.62584 16.7414C2.74303 16.4672 2.886 16.2023 3.0524 15.9539C3.09225 15.8953 3.13443 15.8367 3.17662 15.7781C3.27974 15.6398 3.08756 15.8883 3.16021 15.7992C3.186 15.7664 3.21178 15.7359 3.23756 15.7031C3.32896 15.593 3.42506 15.4875 3.52818 15.3867C3.62896 15.2859 3.73443 15.1898 3.84459 15.0961C3.87506 15.0703 3.90787 15.0445 3.94068 15.0188C4.03678 14.9414 3.78834 15.1313 3.90787 15.0445C3.97115 15 4.03209 14.9531 4.09537 14.9109C4.34381 14.7445 4.60631 14.6016 4.88287 14.4844L4.71412 14.5547C5.10318 14.3906 5.51099 14.2805 5.93053 14.2242C5.86725 14.2336 5.80631 14.2406 5.74303 14.25C6.0524 14.2102 6.35943 14.2102 6.66881 14.2102H10.6227C10.9883 14.2102 11.354 14.2055 11.7196 14.2523C11.6563 14.243 11.5954 14.2359 11.5321 14.2266C11.9446 14.2852 12.3454 14.3953 12.7297 14.5547L12.561 14.4844C12.854 14.6086 13.1329 14.7609 13.393 14.9414C13.4563 14.9836 13.5149 15.0305 13.5758 15.075C13.379 14.932 13.5758 15.0773 13.6251 15.1172C13.7352 15.2109 13.843 15.3094 13.9438 15.4148C14.0446 15.518 14.143 15.6281 14.2344 15.7406C14.2555 15.7664 14.279 15.7945 14.3001 15.8227C14.2766 15.7945 14.2555 15.7641 14.2321 15.7359L14.2743 15.7922C14.3165 15.8484 14.3563 15.907 14.3938 15.9633C14.5555 16.207 14.6962 16.4672 14.811 16.7367L14.7407 16.568C14.9024 16.9547 15.0149 17.3602 15.0712 17.7773C15.0618 17.7141 15.0547 17.6531 15.0454 17.5898C15.0758 17.8008 15.0899 18.0117 15.0899 18.2227C15.0922 18.5906 15.4133 18.9422 15.793 18.9258C16.1727 18.9094 16.4985 18.6164 16.4962 18.2227C16.4938 17.6156 16.3977 16.9992 16.1891 16.4273C15.9712 15.8297 15.6688 15.3 15.2751 14.8008C14.5251 13.8516 13.4001 13.1672 12.2165 12.9234C11.6446 12.8063 11.0797 12.8016 10.5008 12.8016H6.77428C6.19537 12.8016 5.62115 12.8227 5.05396 12.9609C3.01959 13.4602 1.35787 15.2109 1.02975 17.2898C0.921933 17.9672 0.94537 18.6469 0.94537 19.3312C0.94537 19.5562 0.931308 19.7859 0.950058 20.0109C1.011 20.7281 1.51021 21.3984 2.24146 21.5438C2.50162 21.5953 2.7524 21.5883 3.01256 21.5883H14.8063C15.2633 21.5859 15.7274 21.4055 16.0368 21.0656C16.3087 20.768 16.4563 20.4117 16.4915 20.0109C16.4985 19.9312 16.4962 19.8516 16.4962 19.7695V18.2227C16.4962 17.8547 16.1727 17.5031 15.793 17.5195C15.4133 17.5359 15.0899 17.8266 15.0899 18.2227Z" fill="#1B1F26" fill-opacity="0.72"/>
<path d="M22.6484 16.9898V17.8055C22.6484 18.0797 22.6672 18.3633 22.6437 18.6375C22.6531 18.5742 22.6602 18.5133 22.6695 18.45C22.6625 18.5016 22.6508 18.5508 22.632 18.6L22.7023 18.4313C22.6906 18.4594 22.6742 18.4852 22.6625 18.5133C22.6109 18.6188 22.7891 18.375 22.6883 18.4781C22.5922 18.5742 22.7984 18.4195 22.7375 18.443C22.7047 18.4547 22.6766 18.4781 22.6437 18.4922L22.8125 18.4219C22.7633 18.4406 22.7141 18.4523 22.6625 18.4594C22.7258 18.45 22.7867 18.443 22.85 18.4336C22.6062 18.4547 22.3555 18.4383 22.1117 18.4383H15.793L16.4961 19.1414C16.4961 18.675 16.5195 18.2016 16.4727 17.7375C16.3766 16.7859 16.0602 15.8578 15.4906 15.082C15.1437 14.6086 14.7523 14.2172 14.2883 13.8609C14.3352 14.2289 14.382 14.5969 14.4312 14.9648C14.4687 14.932 14.5062 14.9016 14.5437 14.8711C14.6492 14.782 14.4055 14.9695 14.518 14.8922C14.5883 14.843 14.6586 14.7938 14.7312 14.7469C14.8789 14.6555 15.0336 14.5758 15.193 14.5078L15.0242 14.5781C15.2937 14.4656 15.575 14.3883 15.8633 14.3461C15.8 14.3555 15.7391 14.3625 15.6758 14.3719C15.9266 14.3391 16.175 14.3391 16.4281 14.3391H19.6461C19.9156 14.3391 20.1828 14.3344 20.4523 14.3695C20.3891 14.3602 20.3281 14.3531 20.2648 14.3438C20.5578 14.3859 20.8414 14.4633 21.1156 14.5758L20.9469 14.5055C21.1414 14.5898 21.3289 14.6883 21.5047 14.8055C21.5469 14.8336 21.5891 14.8641 21.6312 14.8945C21.732 14.9672 21.5867 14.85 21.575 14.85C21.5867 14.85 21.6242 14.8898 21.6336 14.8992C21.7156 14.9672 21.7953 15.0398 21.8727 15.1148C21.9453 15.1875 22.0133 15.2625 22.0789 15.3422C22.0953 15.3609 22.1117 15.382 22.1281 15.4008C22.1797 15.4641 22.0203 15.2555 22.0836 15.3445C22.1141 15.3867 22.1445 15.4266 22.1727 15.4688C22.2945 15.6492 22.3977 15.8391 22.482 16.0383L22.4117 15.8695C22.5266 16.1414 22.6039 16.4273 22.6437 16.7203C22.6344 16.657 22.6273 16.5961 22.618 16.5328C22.6391 16.6852 22.6484 16.8375 22.6484 16.9898C22.6508 17.3578 22.9695 17.7094 23.3516 17.693C23.7312 17.6766 24.057 17.3836 24.0547 16.9898C24.05 15.8367 23.5484 14.6836 22.6625 13.9336C21.8961 13.282 20.9516 12.9328 19.9437 12.9328H16.4164C16.1047 12.9328 15.8 12.9445 15.4906 12.9914C14.7219 13.1039 14.0187 13.4672 13.4352 13.9734C13.2687 14.1188 13.2148 14.3555 13.2406 14.5641C13.2734 14.7984 13.393 14.9367 13.5758 15.0773C13.5641 15.068 13.4445 14.9719 13.5172 15.0328C13.5359 15.0469 13.5523 15.0609 13.5711 15.0773C13.6109 15.1102 13.6508 15.1453 13.6906 15.1781C13.7656 15.2438 13.8359 15.3117 13.9062 15.3797C13.9766 15.45 14.0445 15.5203 14.1102 15.5953C14.1711 15.6656 14.2297 15.7641 14.3 15.8227C14.2883 15.8133 14.1992 15.6867 14.2531 15.7641L14.2953 15.8203C14.3234 15.8578 14.3492 15.8953 14.375 15.9352C14.4312 16.0172 14.4828 16.1016 14.5344 16.1859C14.6398 16.3641 14.7312 16.5469 14.8109 16.7367L14.7406 16.568C14.9023 16.9547 15.0148 17.3602 15.0711 17.7773C15.0617 17.7141 15.0547 17.6531 15.0453 17.5898C15.1109 18.1008 15.0875 18.6234 15.0875 19.1391C15.0875 19.5188 15.4086 19.8422 15.7906 19.8422H22.5523C22.7984 19.8422 23.0305 19.8398 23.2648 19.7391C23.743 19.5375 24.0383 19.0875 24.05 18.5695C24.0523 18.4547 24.05 18.3375 24.05 18.2203V16.9852C24.05 16.6172 23.7266 16.2656 23.3469 16.282C22.9719 16.3031 22.6484 16.5961 22.6484 16.9898Z" fill="#059669"/>
</g>
<defs>
<clipPath id="clip0_1_1796">
<rect width="24" height="24" fill="white" transform="translate(0.5)"/>
</clipPath>
</defs>
</svg>
