<svg width="13" height="16" viewBox="0 0 13 16" fill="none" xmlns="http://www.w3.org/2000/svg">
<path d="M10.5 0H2.5C1.39543 0 0.5 0.89543 0.5 2V14C0.5 15.1046 1.39543 16 2.5 16H10.5C11.6046 16 12.5 15.1046 12.5 14V2C12.5 0.89543 11.6046 0 10.5 0ZM3.5 4H9.5C9.77614 4 10 4.22386 10 4.5C10 4.77614 9.77614 5 9.5 5H3.5C3.22386 5 3 4.77614 3 4.5C3 4.22386 3.22386 4 3.5 4ZM3 6.5C3 6.22386 3.22386 6 3.5 6H9.5C9.77614 6 10 6.22386 10 6.5C10 6.77614 9.77614 7 9.5 7H3.5C3.22386 7 3 6.77614 3 6.5ZM3.5 8H9.5C9.77614 8 10 8.22386 10 8.5C10 8.77614 9.77614 9 9.5 9H3.5C3.22386 9 3 8.77614 3 8.5C3 8.22386 3.22386 8 3.5 8ZM3.5 10H6.5C6.77614 10 7 10.2239 7 10.5C7 10.7761 6.77614 11 6.5 11H3.5C3.22386 11 3 10.7761 3 10.5C3 10.2239 3.22386 10 3.5 10Z" fill="white"/>
</svg>
